<svg xmlns="http://www.w3.org/2000/svg" xmlns:xlink="http://www.w3.org/1999/xlink" width="40" height="40" viewBox="0 0 40 40">
  <defs>
    <clipPath id="clip-path">
      <rect id="Rectangle_2429" data-name="Rectangle 2429" width="40" height="40" transform="translate(18 88)" fill="none" stroke="#707070" stroke-width="1"/>
    </clipPath>
  </defs>
  <g id="Mask_Group_31157" data-name="Mask Group 31157" transform="translate(-18 -88)" clip-path="url(#clip-path)">
    <g id="Group_35100" data-name="Group 35100" transform="translate(-303.577 -228.964)">
      <path id="Path_16010" data-name="Path 16010" d="M333.838,346.329a1.01,1.01,0,1,0-1.01-1.011A1.011,1.011,0,0,0,333.838,346.329Z" transform="translate(0 -1.196)"/>
      <path id="Path_16011" data-name="Path 16011" d="M351.3,342.513a1.6,1.6,0,0,0-1.787-.664l-3.753,1.079a1.486,1.486,0,0,0-1.222-.859l-5.113-.387a.569.569,0,0,0-.281.065l-3.115,1.77a.505.505,0,0,0-.492-.4h-3.459a.507.507,0,0,0-.5.509V349.9a.507.507,0,0,0,.5.51h3.459a.506.506,0,0,0,.5-.509v-.088h7.286a.506.506,0,0,0,.28-.087l7.255-4.939A1.656,1.656,0,0,0,351.3,342.513Zm-6.465,1.285a.464.464,0,0,1-.285.222l-3.519.959a.5.5,0,0,0-.305.24.508.508,0,0,0,.567.743l3.517-.958a1.472,1.472,0,0,0,.9-.7,1.452,1.452,0,0,0,.138-.345l3.942-1.133a.609.609,0,0,1,.678.252.63.63,0,0,1-.168.864l-7.126,4.854h-7.132v-4.122l3.465-1.965,4.959.375a.477.477,0,0,1,.372.713Zm-9.8.336v5.261h-2.454v-5.261Z" transform="translate(0 -1.449)"/>
      <path id="Path_16012" data-name="Path 16012" d="M340.047,332.711a2.813,2.813,0,1,0,2.814-2.813A2.818,2.818,0,0,0,340.047,332.711Zm4.609,0a1.8,1.8,0,1,1-1.8-1.8A1.8,1.8,0,0,1,344.656,332.711Z" transform="translate(-0.151 -0.361)"/>
      <path id="Path_16013" data-name="Path 16013" d="M335.505,335.149a7.718,7.718,0,0,0,1.567,2.715.511.511,0,0,0,.635.1l1.2-.692a6.1,6.1,0,0,0,1.983,1.145V339.8a.511.511,0,0,0,.406.5,7.758,7.758,0,0,0,3.135,0,.51.51,0,0,0,.405-.5v-1.384a6.083,6.083,0,0,0,1.983-1.145l1.2.692a.512.512,0,0,0,.635-.1,7.7,7.7,0,0,0,1.567-2.715.51.51,0,0,0-.228-.6l-1.2-.691a6.036,6.036,0,0,0,0-2.289l1.2-.692a.51.51,0,0,0,.23-.6,7.682,7.682,0,0,0-1.567-2.712.507.507,0,0,0-.635-.1l-1.2.692A6.066,6.066,0,0,0,344.834,327v-1.383a.508.508,0,0,0-.405-.5,7.832,7.832,0,0,0-3.133,0,.511.511,0,0,0-.408.5v1.384a6.064,6.064,0,0,0-1.982,1.145l-1.2-.693a.515.515,0,0,0-.634.1,7.7,7.7,0,0,0-1.567,2.715.507.507,0,0,0,.229.6l1.2.692a6.118,6.118,0,0,0,0,2.289l-1.2.691A.507.507,0,0,0,335.505,335.149Zm8.686-7.279a5.022,5.022,0,0,1,2.2,1.269.515.515,0,0,0,.612.079l1.155-.666a6.734,6.734,0,0,1,.955,1.654l-1.153.665a.513.513,0,0,0-.239.571,5.032,5.032,0,0,1,0,2.539.513.513,0,0,0,.239.57l1.153.665a6.725,6.725,0,0,1-.955,1.654L347,336.2a.516.516,0,0,0-.613.079,5.026,5.026,0,0,1-2.2,1.269.512.512,0,0,0-.373.491v1.331a6.79,6.79,0,0,1-1.91,0v-1.331a.512.512,0,0,0-.375-.491,5.021,5.021,0,0,1-2.2-1.27.509.509,0,0,0-.611-.078l-1.153.665a6.667,6.667,0,0,1-.955-1.654l1.152-.665a.509.509,0,0,0,.238-.57,5.033,5.033,0,0,1,0-2.539.513.513,0,0,0-.238-.571l-1.152-.665a6.708,6.708,0,0,1,.955-1.654l1.153.667a.516.516,0,0,0,.612-.08,5.017,5.017,0,0,1,2.2-1.269.514.514,0,0,0,.374-.491v-1.331a6.715,6.715,0,0,1,1.91,0v1.331A.51.51,0,0,0,344.191,327.87Z" transform="translate(-0.261)"/>
    </g>
  </g>
</svg>
