<svg width="5" height="17" viewBox="0 0 5 17" fill="none" xmlns="http://www.w3.org/2000/svg">
<path d="M0.292053 15.1C0.272068 14.7008 0.372144 14.3048 0.579407 13.9631C0.78667 13.6213 1.09159 13.3494 1.45483 13.1825C1.81808 13.0157 2.223 12.9616 2.61731 13.0272C3.01162 13.0927 3.37726 13.2748 3.66705 13.5501C3.95685 13.8254 4.15748 14.1811 4.2431 14.5716C4.32873 14.962 4.29545 15.3692 4.14746 15.7405C3.99947 16.1118 3.74362 16.4303 3.4129 16.6548C3.08219 16.8793 2.69177 16.9996 2.29205 17.0001C1.77498 17.013 1.27392 16.82 0.898926 16.4638C0.523933 16.1076 0.305671 15.6171 0.292053 15.1ZM0.292053 9.00005C0.272068 8.60084 0.372144 8.20475 0.579407 7.86297C0.78667 7.52118 1.09159 7.24939 1.45483 7.08257C1.81808 6.91575 2.223 6.86155 2.61731 6.92705C3.01162 6.99256 3.37726 7.1747 3.66705 7.45C3.95685 7.72531 4.15748 8.08117 4.2431 8.47161C4.32873 8.86205 4.29545 9.26924 4.14746 9.64056C3.99947 10.0119 3.74362 10.3302 3.4129 10.5547C3.08219 10.7792 2.69177 10.8996 2.29205 10.9001C1.77491 10.9132 1.27373 10.7205 0.898682 10.3642C0.52363 10.0079 0.305409 9.51719 0.292053 9.00005ZM0.292053 2.90008C0.272068 2.50086 0.372144 2.10478 0.579407 1.76299C0.78667 1.42121 1.09159 1.14942 1.45483 0.982597C1.81808 0.815775 2.223 0.761575 2.61731 0.827079C3.01162 0.892583 3.37726 1.07472 3.66705 1.35003C3.95685 1.62533 4.15748 1.9812 4.2431 2.37163C4.32873 2.76207 4.29545 3.16914 4.14746 3.54046C3.99947 3.91177 3.74362 4.23026 3.4129 4.45476C3.08219 4.67927 2.69177 4.7996 2.29205 4.8001C1.77491 4.81327 1.27373 4.62051 0.898682 4.26421C0.52363 3.90791 0.305409 3.41722 0.292053 2.90008Z" fill="#2F78C4"/>
</svg>
