<svg width="20" height="20" viewBox="0 0 20 20" fill="none" xmlns="http://www.w3.org/2000/svg">
<path d="M9.9 0L9.822 0.026L0.651 2.057L0 2.214V17.786L0.651 17.942L9.818 19.973L9.9 20H11.671V17.5H20V2.5H11.667V0H9.9ZM10 1.693V18.307L1.667 16.484V3.516L10 1.693ZM11.667 4.167H18.334V15.833H11.667V14.167H13.334V12.5H11.667V11.667H13.334V10H11.667V9.167H13.334V7.5H11.667V6.667H13.334V5H11.667V4.167ZM14.167 5V6.667H17.5V5H14.167ZM8.467 5.833L6.567 6.067L5.525 8.307C5.414 8.629 5.333 8.873 5.291 9.036H5.26C5.20792 8.79788 5.1384 8.56392 5.052 8.336L4.531 6.409L2.76 6.617L2.682 6.669L4.167 10L2.5 13.333L4.3 13.541L5.029 11.484C5.10121 11.2877 5.16198 11.0873 5.211 10.884H5.237C5.26109 11.0789 5.30464 11.2708 5.367 11.457L6.487 13.905L8.518 14.165L6.3 9.974L8.467 5.833ZM14.167 7.5V9.167H17.5V7.5H14.167ZM14.167 10V11.667H17.5V10H14.167ZM14.167 12.5V14.167H17.5V12.5H14.167Z" fill="#2F78C4"/>
</svg>
