<svg width="22" height="16" viewBox="0 0 22 16" fill="none" xmlns="http://www.w3.org/2000/svg">
<g id="Group 24978">
<path id="Path 11179" d="M11.006 1.00002C8.84478 0.995616 6.73272 1.64475 4.94703 2.86221C3.16135 4.07968 1.78547 5.80858 1 7.82202C1.7892 9.83292 3.16598 11.5594 4.95083 12.7763C6.73568 13.9932 8.84578 14.6441 11.006 14.6441C13.1662 14.6441 15.2763 13.9932 17.0612 12.7763C18.846 11.5594 20.2228 9.83292 21.012 7.82202C20.2265 5.80858 18.8507 4.07968 17.065 2.86221C15.2793 1.64475 13.1672 0.995616 11.006 1.00002V1.00002Z" stroke="#2E308E"/>
<path id="Ellipse 1224" d="M11.5 11.5C13.7091 11.5 15.5 9.70914 15.5 7.5C15.5 5.29086 13.7091 3.5 11.5 3.5C9.29086 3.5 7.5 5.29086 7.5 7.5C7.5 9.70914 9.29086 11.5 11.5 11.5Z" fill="#2E308E"/>
<path id="Ellipse 1225" d="M9 6.5C9.82843 6.5 10.5 5.82843 10.5 5C10.5 4.17157 9.82843 3.5 9 3.5C8.17157 3.5 7.5 4.17157 7.5 5C7.5 5.82843 8.17157 6.5 9 6.5Z" fill="white"/>
</g>
</svg>
