<svg width="17" height="17" viewBox="0 0 17 17" fill="none" xmlns="http://www.w3.org/2000/svg">
<g id="Vector Smart Object">
<path id="Path 35" d="M15.478 0.764026C15.2377 0.521995 14.9519 0.329902 14.6371 0.198817C14.3222 0.0677311 13.9845 0.000244141 13.6435 0.000244141C13.3025 0.000244141 12.9648 0.0677311 12.6499 0.198817C12.3351 0.329902 12.0493 0.521995 11.809 0.764026L1.522 11.102C1.45153 11.1729 1.40055 11.2607 1.374 11.357L0.0210008 16.266C-0.00630303 16.3649 -0.00699485 16.4692 0.0189952 16.5684C0.0449853 16.6677 0.0967344 16.7582 0.169001 16.831C0.240986 16.9036 0.331001 16.9556 0.429781 16.9818C0.528561 17.008 0.632535 17.0074 0.731001 16.98L5.615 15.62C5.71115 15.5932 5.79868 15.5419 5.869 15.471L16.154 5.13203C16.6401 4.6414 16.9128 3.97868 16.9128 3.28803C16.9128 2.59737 16.6401 1.93465 16.154 1.44403L15.478 0.764026ZM2.778 11.479L11.197 3.01603L13.912 5.74603L5.493 14.208L2.778 11.479ZM2.236 12.573L4.405 14.753L1.405 15.588L2.236 12.573ZM15.339 4.31603L14.728 4.93103L12.012 2.19803L12.624 1.58303C12.7575 1.4486 12.9162 1.34191 13.0911 1.26911C13.266 1.19631 13.4536 1.15882 13.643 1.15882C13.8324 1.15882 14.02 1.19631 14.1949 1.26911C14.3698 1.34191 14.5285 1.4486 14.662 1.58303L15.339 2.26303C15.6102 2.53583 15.7624 2.90486 15.7624 3.28953C15.7624 3.67419 15.6102 4.04322 15.339 4.31603Z" fill="#2E308E"/>
</g>
</svg>
