<svg width="15" height="15" viewBox="0 0 15 15" fill="none" xmlns="http://www.w3.org/2000/svg">
<path d="M14.861 1.06296L9.545 8.86801V14.031C9.55259 14.1544 9.53502 14.2781 9.49336 14.3945C9.45171 14.5109 9.38685 14.6177 9.30269 14.7083C9.21853 14.799 9.11686 14.8716 9.0038 14.9217C8.89074 14.9718 8.76863 14.9984 8.64497 15H6.355C6.23134 14.9984 6.10929 14.9718 5.99623 14.9217C5.88318 14.8716 5.78144 14.799 5.69728 14.7083C5.61312 14.6177 5.54826 14.5109 5.50661 14.3945C5.46496 14.2781 5.44738 14.1544 5.45497 14.031V8.86801L0.138993 1.06296C0.0615816 0.965186 0.0136582 0.847399 0.00080958 0.723357C-0.012039 0.599314 0.010694 0.474201 0.0664224 0.362639C0.122151 0.251077 0.208551 0.157701 0.315446 0.093474C0.422341 0.0292468 0.545333 -0.00320477 0.669999 -3.18516e-05H14.331C14.4557 -0.00320477 14.5787 0.0292468 14.6856 0.093474C14.7925 0.157701 14.8788 0.251077 14.9345 0.362639C14.9903 0.474201 15.013 0.599314 15.0002 0.723357C14.9874 0.847399 14.9394 0.965186 14.862 1.06296H14.861ZM6.66701 8.27792C6.75314 8.38764 6.80559 8.51997 6.81801 8.6589V13.635H8.18202V8.6589C8.19444 8.51997 8.2469 8.38764 8.33302 8.27792L9.83302 6.08798C9.52646 6.12488 9.21776 6.1412 8.90901 6.13693C8.4374 6.12549 7.96933 6.05187 7.51698 5.91794C7.10445 5.79497 6.67738 5.72776 6.24703 5.71799C5.83953 5.71791 5.43455 5.78197 5.04701 5.90793L6.66701 8.27792ZM1.95497 1.36301L4.33901 4.88693C4.94962 4.65321 5.5972 4.53098 6.25099 4.52597C6.77954 4.53619 7.30439 4.61625 7.81197 4.76401C8.17173 4.87281 8.54431 4.93357 8.92 4.94491C9.56746 4.97018 10.2135 4.8658 10.82 4.63791H10.832L13.045 1.36691L1.95497 1.36301ZM10.389 3.51095C10.2606 3.63889 10.0867 3.71078 9.90547 3.71078C9.72422 3.71078 9.5504 3.63889 9.42201 3.51095C9.32665 3.41537 9.26172 3.29367 9.23549 3.16122C9.20926 3.02878 9.22287 2.89153 9.27461 2.76681C9.32635 2.6421 9.41391 2.53552 9.5262 2.46054C9.63849 2.38556 9.77045 2.34555 9.90547 2.34555C10.0405 2.34555 10.1725 2.38556 10.2848 2.46054C10.3971 2.53552 10.4846 2.6421 10.5363 2.76681C10.5881 2.89153 10.6017 3.02878 10.5755 3.16122C10.5492 3.29367 10.4844 3.41537 10.389 3.51095Z" fill="#2F78C4"/>
</svg>
