<svg xmlns="http://www.w3.org/2000/svg" xmlns:xlink="http://www.w3.org/1999/xlink" width="40" height="40" viewBox="0 0 40 40">
  <defs>
    <clipPath id="clip-path">
      <rect id="Rectangle_2425" data-name="Rectangle 2425" width="40" height="40" transform="translate(4153 7672)"/>
    </clipPath>
  </defs>
  <g id="Mask_Group_31154" data-name="Mask Group 31154" transform="translate(-4153 -7672)" clip-path="url(#clip-path)">
    <g id="Group_35095" data-name="Group 35095" transform="translate(4163 7682)">
      <g id="Group_35091" data-name="Group 35091" transform="translate(0)">
        <g id="Group_35090" data-name="Group 35090">
          <g id="Group_35089" data-name="Group 35089">
            <g id="Group_35088" data-name="Group 35088">
              <g id="Group_35087" data-name="Group 35087">
                <g id="Group_35086" data-name="Group 35086">
                  <path id="Path_16000" data-name="Path 16000" d="M224.536,349.34a3.534,3.534,0,0,0,.986,1.1,3.342,3.342,0,0,0,2.019.675,3.538,3.538,0,0,0,3.389-2.7,3.008,3.008,0,0,0,.12-.95,1.413,1.413,0,0,0-.023-.325,3.586,3.586,0,0,0-2.644-3.225,4.574,4.574,0,0,0-.842-.125,2.119,2.119,0,0,0-.385.025.4.4,0,0,0-.168.025,3.664,3.664,0,0,0-2.98,3.625A3.919,3.919,0,0,0,224.536,349.34Zm-1.3.075a4.968,4.968,0,0,1,2.958-6.675,2.179,2.179,0,0,0,.384-.1,6.046,6.046,0,0,0-1.634-1.85,3.666,3.666,0,0,0-.937-.55,2.946,2.946,0,0,0-1.083-.25,2.578,2.578,0,0,0-.937.175,3.658,3.658,0,0,0-.961.525,7.568,7.568,0,0,0-2.861,6.3,1.692,1.692,0,0,0,.144.725,1.737,1.737,0,0,0,.408.6,3.15,3.15,0,0,0,.793.5A8.955,8.955,0,0,0,223.238,349.415Zm9.833-3.875a2.829,2.829,0,0,1-.818,2,.024.024,0,0,1-.024.025,4.786,4.786,0,0,1-4.687,4.725,4.573,4.573,0,0,1-3.51-1.65c-2.308.225-4.928-.225-6.106-1.425a4.433,4.433,0,0,1-.312-.375,6,6,0,0,1-3.726-1.3,2.817,2.817,0,0,1-.817-2,9.476,9.476,0,0,1,1.417-4.875,6.191,6.191,0,0,1,1.491-1.675.653.653,0,0,0,.144-.325.766.766,0,0,0-.144-.55,3.561,3.561,0,0,1-.889-2.35,3.4,3.4,0,0,1,3.341-3.475,3.152,3.152,0,0,1,2.188.875,3.523,3.523,0,0,1,2.307-.85,3.657,3.657,0,0,1,2.428.95,3.228,3.228,0,0,1,2.307-.975A3.4,3.4,0,0,1,231,335.765a3.512,3.512,0,0,1-.89,2.35.949.949,0,0,0-.144.55.507.507,0,0,0,.144.325,6.178,6.178,0,0,1,1.491,1.675A9.155,9.155,0,0,1,233.07,345.54Zm-1.106.35a1.645,1.645,0,0,0,.023-.325c.024-3.925-2.5-6.325-4.278-6.325a3.43,3.43,0,0,0-1.827.675,6.448,6.448,0,0,1,1.442,1.675,4.14,4.14,0,0,1,.529.975A4.74,4.74,0,0,1,231.964,345.89Zm-2.428-8.75a2.428,2.428,0,0,0,.409-1.375,2.346,2.346,0,0,0-2.284-2.375,2.208,2.208,0,0,0-1.611.7,3.969,3.969,0,0,1,.577,2.05,4.628,4.628,0,0,1-.288,1.525,2.139,2.139,0,0,0,1.346.45,2.191,2.191,0,0,0,1.635-.725A2.222,2.222,0,0,0,229.536,337.14Zm-4.134-1.075a2.5,2.5,0,1,0-2.5,2.6A2.55,2.55,0,0,0,225.4,336.065Zm-6.13.1a3.9,3.9,0,0,1,.649-2.175,2.15,2.15,0,0,0-1.491-.575,2.345,2.345,0,0,0-2.283,2.375,2.274,2.274,0,0,0,.433,1.375,2.237,2.237,0,0,1,.217.275,2.188,2.188,0,0,0,1.634.725,1.957,1.957,0,0,0,1.178-.375A3.7,3.7,0,0,1,219.272,336.165Zm-.673,5.425a6.444,6.444,0,0,1,1.563-1.775,3.009,3.009,0,0,0-1.707-.6c-1.779,0-4.3,2.4-4.3,6.3a1.573,1.573,0,0,0,.5,1.225,4.623,4.623,0,0,0,2.452.875,3.06,3.06,0,0,1-.048-.675A9.779,9.779,0,0,1,218.6,341.59Z" transform="translate(-213.07 -332.29)"/>
                </g>
              </g>
            </g>
          </g>
        </g>
      </g>
      <g id="Group_35094" data-name="Group 35094" transform="translate(12.451 13.497)">
        <g id="Group_35093" data-name="Group 35093">
          <g id="Group_35092" data-name="Group 35092">
            <path id="Path_16001" data-name="Path 16001" d="M229.213,351.939l-1.033-1.025a.506.506,0,0,1-.12-.6.535.535,0,0,1,.865-.2c.217.2.408.4.625.625.6-.7,1.2-1.375,1.779-2.075a.536.536,0,0,1,.889.15.556.556,0,0,1-.1.6c-.505.6-1.01,1.2-1.539,1.775l-.6.7a.485.485,0,0,1-.408.175A.41.41,0,0,1,229.213,351.939Z" transform="translate(-228.011 -348.487)"/>
          </g>
        </g>
      </g>
    </g>
  </g>
</svg>
