<svg xmlns="http://www.w3.org/2000/svg" xmlns:xlink="http://www.w3.org/1999/xlink" width="40" height="40" viewBox="0 0 40 40">
  <defs>
    <clipPath id="clip-path">
      <rect id="Rectangle_2426" data-name="Rectangle 2426" width="40" height="40" transform="translate(4080 7672)"/>
    </clipPath>
  </defs>
  <g id="Mask_Group_31155" data-name="Mask Group 31155" transform="translate(-4080 -7672)" clip-path="url(#clip-path)">
    <g id="Group_35097" data-name="Group 35097" transform="translate(4090 7682)">
      <g id="Group_35096" data-name="Group 35096">
        <path id="Path_16002" data-name="Path 16002" d="M185.395,336.915a2.765,2.765,0,0,0,.682-1.83,2.805,2.805,0,0,0-5.61,0,2.746,2.746,0,0,0,.681,1.83,4.3,4.3,0,0,0-2.544,3.9v.682h9.325v-.67A4.313,4.313,0,0,0,185.395,336.915Zm-2.533.7h.795a3.2,3.2,0,0,1,3.169,2.8h-7.132A3.228,3.228,0,0,1,182.862,337.619Zm.409-4.261a1.733,1.733,0,1,1-1.738,1.727A1.738,1.738,0,0,1,183.271,333.358Z" transform="translate(-178.603 -332.29)"/>
        <path id="Path_16003" data-name="Path 16003" d="M198.183,349.883a2.764,2.764,0,0,0,.682-1.829,2.794,2.794,0,1,0-5.588,0,2.746,2.746,0,0,0,.682,1.829,4.3,4.3,0,0,0-2.544,3.9v.671h9.324v-.671A4.316,4.316,0,0,0,198.183,349.883Zm-2.124-3.568a1.739,1.739,0,1,1-1.738,1.739A1.739,1.739,0,0,1,196.059,346.315Zm-.4,4.272h.795a3.2,3.2,0,0,1,3.169,2.8h-7.132A3.21,3.21,0,0,1,195.661,350.587Z" transform="translate(-180.738 -334.451)"/>
        <path id="Path_16004" data-name="Path 16004" d="M188.437,350.452H185.78a1.469,1.469,0,0,1-1.465-1.466V346.27l1.09,1.091a.53.53,0,0,0,.75-.75l-2-2.011a.533.533,0,0,0-.749,0l-2,2a.53.53,0,0,0,.75.75l1.09-1.091v2.716a2.536,2.536,0,0,0,2.533,2.534h2.669a.529.529,0,1,0-.012-1.057Z" transform="translate(-179.045 -334.316)"/>
        <path id="Path_16005" data-name="Path 16005" d="M198.272,339.855a.536.536,0,0,0-.75,0l-1.09,1.091V338.5a2.548,2.548,0,0,0-2.544-2.546h-3.317a.534.534,0,0,0,0,1.068H193.9a1.474,1.474,0,0,1,1.476,1.478v2.443l-1.09-1.091a.53.53,0,0,0-.75.75l2,2a.521.521,0,0,0,.75,0l2-2A.525.525,0,0,0,198.272,339.855Z" transform="translate(-180.509 -332.901)"/>
      </g>
    </g>
  </g>
</svg>
