<svg width="16" height="12" viewBox="0 0 16 12" fill="none" xmlns="http://www.w3.org/2000/svg">
<path d="M8 0.999995V1.00001L15.0573 11C15.0573 11 15.0573 11 15.0573 11L0.942687 11C0.942687 11 0.942687 11 0.942684 11L7.99792 1.00022C7.99813 1.00015 7.9989 0.999995 8 0.999995ZM8 0C7.71771 0 7.43541 0.133335 7.24722 0.400005L0.189904 10.4C-0.275343 11.0592 0.167274 12 0.942684 12L15.0573 12C15.8327 12 16.2753 11.0592 15.8101 10.4L8.75278 0.400005C8.56459 0.133335 8.28229 0 8 0Z" fill="white"/>
</svg>
