<svg width="17" height="17" viewBox="0 0 17 17" fill="none" xmlns="http://www.w3.org/2000/svg">
<path d="M0.563199 0.438406C0.823799 0.177057 1.17692 0.0302734 1.54507 0.0302734C1.91322 0.0302734 2.26634 0.177057 2.52694 0.438406L8.17942 6.12027L13.8319 0.438406C14.0946 0.18802 14.4442 0.0505599 14.8062 0.0553741C15.1682 0.0601883 15.5139 0.2069 15.7699 0.464183C16.0259 0.721467 16.1718 1.06901 16.1766 1.43284C16.1814 1.79666 16.0448 2.14801 15.7956 2.41201L10.1432 8.09387L15.7956 13.7758C16.0448 14.0398 16.1814 14.3911 16.1766 14.7549C16.1718 15.1187 16.0259 15.4663 15.7699 15.7236C15.5139 15.9809 15.1682 16.1276 14.8062 16.1324C14.4442 16.1372 14.0946 15.9998 13.8319 15.7494L8.17942 10.0675L2.52694 15.7494C2.26426 15.9998 1.91466 16.1372 1.55266 16.1324C1.19066 16.1276 0.844784 15.9809 0.588787 15.7236C0.332789 15.4663 0.186872 15.1187 0.182082 14.7549C0.177292 14.3911 0.314065 14.0398 0.563199 13.7758L6.21568 8.09387L0.563199 2.41201C0.434197 2.28246 0.331848 2.12859 0.262027 1.95927C0.192207 1.78995 0.15625 1.60849 0.15625 1.42521C0.15625 1.24192 0.192207 1.0604 0.262027 0.89108C0.331848 0.72176 0.434197 0.567959 0.563199 0.438406Z" fill="white"/>
</svg>
