<svg xmlns="http://www.w3.org/2000/svg" xmlns:xlink="http://www.w3.org/1999/xlink" width="40" height="40" viewBox="0 0 40 40">
  <defs>
    <clipPath id="clip-path">
      <rect id="Rectangle_2430" data-name="Rectangle 2430" width="40" height="40" transform="translate(1145 320)" fill="#fff" stroke="#707070" stroke-width="1"/>
    </clipPath>
  </defs>
  <g id="Mask_Group_31158" data-name="Mask Group 31158" transform="translate(-1145 -320)" clip-path="url(#clip-path)">
    <g id="noun_report_2120955" transform="translate(1040.054 206.602)">
      <g id="Group_35101" data-name="Group 35101" transform="translate(114.946 121.399)">
        <path id="Path_16014" data-name="Path 16014" d="M54.6,8.4H40.857a1.352,1.352,0,0,0-1.349,1.338v2.2H37.295a1.352,1.352,0,0,0-1.349,1.338V31.061A1.352,1.352,0,0,0,37.295,32.4h13.74a1.352,1.352,0,0,0,1.349-1.338v-2.2H54.6a1.352,1.352,0,0,0,1.349-1.338V9.736A1.369,1.369,0,0,0,54.6,8.4ZM51.29,31.036a.234.234,0,0,1-.254.227H37.295a.227.227,0,0,1-.229-.227V13.244a.227.227,0,0,1,.229-.227h2.214V27.528a1.352,1.352,0,0,0,1.349,1.338H51.29Zm3.537-3.508a.254.254,0,0,1-.254.252H40.857a.254.254,0,0,1-.254-.252V9.736a.254.254,0,0,1,.254-.252H54.6a.254.254,0,0,1,.254.252V27.528Z" transform="translate(-35.946 -8.399)"/>
        <path id="Path_16015" data-name="Path 16015" d="M139.015,178.723h-8.427a.578.578,0,1,0,0,1.155h8.427a.578.578,0,1,0,0-1.155Z" transform="translate(-123.082 -165.953)"/>
        <path id="Path_16016" data-name="Path 16016" d="M139.015,222.4h-8.427a.578.578,0,0,0,0,1.155h8.427a.578.578,0,1,0,0-1.155Z" transform="translate(-123.082 -206.352)"/>
        <path id="Path_16017" data-name="Path 16017" d="M139.015,135.386h-8.427a.578.578,0,0,0,0,1.155h8.427a.583.583,0,0,0,.578-.578A.566.566,0,0,0,139.015,135.386Z" transform="translate(-123.082 -125.866)"/>
        <path id="Path_16018" data-name="Path 16018" d="M147.69,83.347h1.024a.207.207,0,0,0,.21-.21V81.509a.207.207,0,0,0-.21-.21H147.69a.207.207,0,0,0-.21.21v1.628A.226.226,0,0,0,147.69,83.347Z" transform="translate(-139.053 -75.842)"/>
        <path id="Path_16019" data-name="Path 16019" d="M180.277,69.41H181.3a.207.207,0,0,0,.21-.21V66.391a.207.207,0,0,0-.21-.21h-1.024a.207.207,0,0,0-.21.21v2.783A.231.231,0,0,0,180.277,69.41Z" transform="translate(-169.177 -61.867)"/>
        <path id="Path_16020" data-name="Path 16020" d="M212.864,56.093h1.024a.207.207,0,0,0,.21-.21V51.946a.226.226,0,0,0-.21-.21h-1.024a.207.207,0,0,0-.21.21v3.938A.226.226,0,0,0,212.864,56.093Z" transform="translate(-199.302 -48.349)"/>
      </g>
    </g>
  </g>
</svg>
