<svg width="19" height="18" viewBox="0 0 19 18" fill="none" xmlns="http://www.w3.org/2000/svg">
<path d="M17.2965 17.9887L12.09 12.9987V12.2087L11.8088 11.9287C10.4786 13.0251 8.75788 13.5839 7.0078 13.4879C5.25771 13.3918 3.61444 12.6484 2.42299 11.4136C1.23154 10.1788 0.584572 8.54872 0.617928 6.86561C0.651283 5.18251 1.36236 3.57726 2.60188 2.38691C3.84139 1.19656 5.51293 0.513681 7.26555 0.481649C9.01817 0.449616 10.7156 1.07092 12.0013 2.21512C13.2871 3.35932 14.0613 4.93741 14.1613 6.61808C14.2613 8.29875 13.6794 9.95127 12.5377 11.2287L12.8293 11.4987H13.6519L18.848 16.4987L17.2965 17.9877V17.9887ZM7.40413 2.4987C6.47736 2.4987 5.5714 2.76262 4.80082 3.25709C4.03023 3.75155 3.42963 4.45436 3.07497 5.27663C2.72031 6.09889 2.62752 7.00369 2.80832 7.87661C2.98913 8.74952 3.43541 9.55134 4.09074 10.1807C4.74607 10.81 5.58101 11.2386 6.48997 11.4122C7.39894 11.5859 8.34111 11.4968 9.19733 11.1562C10.0536 10.8156 10.7854 10.2388 11.3003 9.49877C11.8152 8.75875 12.09 7.88872 12.09 6.9987C12.0886 5.80563 11.5945 4.66181 10.716 3.81818C9.83754 2.97456 8.64648 2.50002 7.40413 2.4987V2.4987Z" fill="#2F78C4"/>
</svg>
